<svg xmlns="http://www.w3.org/2000/svg" data-name="Layer 1" viewBox="0 0 100 125" x="0px" y="0px"><title>Artboard 84</title><path d="M57,81a3,3,0,0,0,0-6H47a3,3,0,0,0,0,6Z"/><path d="M64.61,54c-.74-.37-1.54-.72-2.46-1.07l-1.27-.49.85-1.07A14.82,14.82,0,0,0,65,42V34a15,15,0,0,0-30,0v8A15,15,0,0,0,50,57h2.11a22.05,22.05,0,0,1,9.81,2.32C68.12,62.41,71,66.44,71,72v6a3,3,0,0,0,6,0V72C77,64.13,72.83,58.06,64.61,54ZM59,42a9,9,0,0,1-18,0V34a9,9,0,0,1,18,0Z"/><path d="M24.47,79.63a3,3,0,0,0,4.65.5l7.3-7.29a5.41,5.41,0,0,0,0-7.66l-7.3-7.29A3,3,0,0,0,26.73,57a3,3,0,0,0-2.22,1.29,3.16,3.16,0,0,0,.51,4L31.75,69l-6.81,6.8A3.05,3.05,0,0,0,24.47,79.63Z"/><text x="0" y="115" fill="#000000" font-size="5px" font-weight="bold" font-family="'Helvetica Neue', Helvetica, Arial-Unicode, Arial, Sans-serif">Created by Gregor Cresnar</text><text x="0" y="120" fill="#000000" font-size="5px" font-weight="bold" font-family="'Helvetica Neue', Helvetica, Arial-Unicode, Arial, Sans-serif">from the Noun Project</text></svg>